#!OML:ASF I:\Actors\actors\Patient Classification 2\Patient 1\Session 1\actor1.ASF
:FULLY-SPECIFIED
:DEGREES
365
root -0.159281 18.9172 5.86052 26.6726 19.8144 0.686554
lowerback 24.8954 0.371364 7.25671
upperback -3.58591 3.90439 6.06229
thorax -17.6726 1.36181 1.2133
lowerneck -22.4836 -5.56667 -5.29275
upperneck -9.35235 -5.83669 21.7855
head 1.8473 -2.11281 7.27885
rclavicle -3.18055e-015 -4.6118e-014
rhumerus -60.1917 -8.27295 -80.3631
rradius 57.7917
rwrist 36.9687
rhand -14.0016 -40.6817
rfingers 7.12502
rthumb 12.1276 -70.3102
lclavicle -3.18055e-015 -4.6118e-014
lhumerus -53.0096 -26.2719 123.83
lradius 50.2893
lwrist -12.2175
lhand -17.1096 -27.4961
lfingers 7.12502
lthumb 9.12959 2.28633
rfemur 0 0 0
rtibia 0
rfoot 0 0
rtoes 0
lfemur -41.7172 -23.2563 -3.63466
ltibia 26.1737
lfoot -15.4596 14.8378
ltoes -54.5511
366
root -0.147703 18.9177 5.87886 26.6001 19.7321 0.742498
lowerback 24.6276 0.199288 7.13157
upperback -3.71897 3.62406 6.08954
thorax -17.7098 1.25499 1.42467
lowerneck -22.1836 -5.50388 -4.76099
upperneck -9.25713 -5.90266 22.0851
head 1.84347 -2.16705 7.27673
rclavicle 4.45278e-014 -7.15625e-014
rhumerus -60.3425 -7.84835 -80.6467
rradius 57.6907
rwrist 37.0486
rhand -13.7649 -40.839
rfingers 7.12502
rthumb 12.3558 -70.4538
lclavicle 4.45278e-014 -7.15625e-014
lhumerus -52.9904 -25.7534 123.483
lradius 50.1484
lwrist -12.5257
lhand -16.9953 -27.4178
lfingers 7.12502
lthumb 9.23989 2.35978
rfemur 0 0 0
rtibia 0
rfoot 0 0
rtoes 0
lfemur -41.5107 -23.25 -3.83846
ltibia 26.189
lfoot -15.5123 14.8086
ltoes -54.5874
367
root -0.138282 18.919 5.89532 26.532 19.6262 0.805098
lowerback 24.3372 -0.172768 6.66829
upperback -3.92577 2.97443 6.1062
thorax -17.8472 1.02025 1.95166
lowerneck -21.4126 -4.93941 -3.26611
upperneck -9.13029 -5.50362 21.9733
head 1.65576 -2.05725 7.01977
rclavicle -5.80451e-014 -4.77083e-014
rhumerus -60.6172 -6.8466 -81.5031
rradius 57.5993
rwrist 37.147
rhand -13.447 -41.068
rfingers 7.12502
rthumb 12.6623 -70.6641
lclavicle -5.80451e-014 -4.77083e-014
lhumerus -52.9291 -24.5636 122.515
lradius 50.0756
lwrist -12.8558
lhand -16.8163 -27.4787
lfingers 7.12502
lthumb 9.41255 2.29113
rfemur 0 0 0
rtibia 0
rfoot 0 0
rtoes 0
lfemur -41.3057 -23.2454 -4.03506
ltibia 26.1898
lfoot -15.577 14.7908
ltoes -54.533
368
root -0.126933 18.9199 5.91385 26.3125 19.5041 0.813041
lowerback 24.2837 0.0838798 7.1732
upperback -3.8538 3.4691 6.15434
thorax -17.696 1.18952 1.53953
lowerneck -21.7586 -5.78671 -4.44293
upperneck -9.39179 -6.34601 22.7107
head 1.83356 -2.41595 7.38154
rclavicle 6.20208e-014 3.02153e-014
rhumerus -60.4512 -7.52791 -80.7637
rradius 57.5658
rwrist 37.0648
rhand -13.3314 -41.2605
rfingers 7.12502
rthumb 12.7738 -70.8497
lclavicle 6.20208e-014 3.02153e-014
lhumerus -52.9302 -25.4427 123.365
lradius 49.83
lwrist -12.8709
lhand -16.6468 -27.3594
lfingers 7.12502
lthumb 9.57617 2.40295
rfemur 0 0 0
rtibia 0
rfoot 0 0
rtoes 0
lfemur -40.9196 -23.2586 -4.24744
ltibia 26.1716
lfoot -15.7146 14.7607
ltoes -54.3773
369
root -0.120869 18.92 5.92641 26.2663 19.4751 0.837229
lowerback 24.0585 0.0991423 7.36526
upperback -3.92405 3.54138 6.21649
thorax -17.6519 1.20735 1.48046
lowerneck -21.728 -6.16264 -4.87183
upperneck -9.47617 -6.75052 23.2709
head 1.91868 -2.59696 7.59812
rclavicle 1.11319e-014 3.65764e-014
rhumerus -60.4193 -7.62781 -80.533
rradius 57.3863
rwrist 37.1239
rhand -13.3182 -41.3428
rfingers 7.12502
rthumb 12.7865 -70.9312
lclavicle 1.11319e-014 3.65764e-014
lhumerus -52.941 -25.4894 123.556
lradius 49.6944
lwrist -12.9539
lhand -16.3886 -27.0762
lfingers 7.12502
lthumb 9.82522 2.67453
rfemur 0 0 0
rtibia 0
rfoot 0 0
rtoes 0
lfemur -40.746 -23.1074 -4.42017
ltibia 26.136
lfoot -15.7332 14.5611
ltoes -54.3277
370
root -0.120436 18.9201 5.92977 26.5957 19.5581 0.999152
lowerback 23.4592 -0.0632685 7.25119
upperback -4.15119 3.24805 6.24766
thorax -17.6195 1.09647 1.69763
lowerneck -21.4877 -6.21254 -4.52215
upperneck -9.4312 -6.91305 23.5183
head 1.92347 -2.69525 7.60084
rclavicle 6.20208e-014 -1.11319e-014
rhumerus -60.4997 -7.30867 -80.7284
rradius 57.1753
rwrist 37.2183
rhand -13.093 -41.6494
rfingers 7.12502
rthumb 13.0035 -71.2241
lclavicle 6.20208e-014 -1.11319e-014
lhumerus -52.9583 -24.9538 123.217
lradius 49.6015
lwrist -13.1807
lhand -16.1334 -26.9398
lfingers 7.12502
lthumb 10.0715 2.79919
rfemur 0 0 0
rtibia 0
rfoot 0 0
rtoes 0
lfemur -41.0399 -22.9528 -4.51033
ltibia 26.0889
lfoot -15.6295 14.3437
ltoes -54.3008
371
root -0.113753 18.922 5.94818 26.3501 19.4636 1.09808
lowerback 23.3937 -0.326971 6.96637
upperback -4.28639 2.82 6.27031
thorax -17.774 0.93799 2.04255
lowerneck -21.0232 -5.99434 -3.666
upperneck -9.34039 -6.82534 23.5149
head 1.83236 -2.70282 7.46074
rclavicle 3.97569e-015 4.6118e-014
rhumerus -60.6825 -6.62733 -81.2337
rradius 57.0016
rwrist 37.2425
rhand -12.7826 -42.112
rfingers 7.12502
rthumb 13.3028 -71.6674
lclavicle 3.97569e-015 4.6118e-014
lhumerus -52.986 -23.9736 122.551
lradius 49.511
lwrist -13.5247
lhand -16.0002 -26.9526
lfingers 7.12502
lthumb 10.1999 2.78014
rfemur 0 0 0
rtibia 0
rfoot 0 0
rtoes 0
lfemur -40.5759 -22.9523 -4.84985
ltibia 26.0425
lfoot -15.7081 14.2612
ltoes -54.2484
372
root -0.109056 18.9221 5.95966 26.4371 19.4507 1.22392
lowerback 23.0437 -0.336152 7.05343
upperback -4.37608 2.80669 6.2965
thorax -17.6887 0.927729 2.03223
lowerneck -21.1719 -6.33596 -3.83518
upperneck -9.34764 -7.26037 23.8536
head 1.94499 -2.89567 7.55319
rclavicle 5.00937e-014 -9.54166e-015
rhumerus -60.6101 -6.63595 -81.122
rradius 56.8839
rwrist 37.2244
rhand -12.4592 -42.3944
rfingers 7.12502
rthumb 13.6145 -71.9292
lclavicle 5.00937e-014 -9.54166e-015
lhumerus -52.9467 -23.8998 122.575
lradius 49.3366
lwrist -13.7125
lhand -15.9042 -26.9564
lfingers 7.12502
lthumb 10.2925 2.77179
rfemur 0 0 0
rtibia 0
rfoot 0 0
rtoes 0
lfemur -40.5577 -22.8957 -5.02689
ltibia 26.0028
lfoot -15.6648 14.1567
ltoes -54.2859
373
root -0.102308 18.9224 5.975 26.4102 19.3996 1.29791
lowerback 22.7565 -0.368228 7.17612
upperback -4.46024 2.77457 6.29656
thorax -17.6262 0.902879 1.97975
lowerneck -21.187 -6.57319 -3.85373
upperneck -9.35306 -7.58387 24.0864
head 2.00939 -3.04849 7.59639
rclavicle -7.95139e-015 -6.52014e-014
rhumerus -60.5573 -6.7061 -81.0608
rradius 56.6882
rwrist 37.3104
rhand -12.1556 -42.5159
rfingers 7.12502
rthumb 13.907 -72.0308
lclavicle -7.95139e-015 -6.52014e-014
lhumerus -52.9745 -23.7926 122.528
lradius 49.2316
lwrist -13.8438
lhand -15.7136 -26.9365
lfingers 7.12502
lthumb 10.4764 2.78241
rfemur 0 0 0
rtibia 0
rfoot 0 0
rtoes 0
lfemur -40.3911 -22.8305 -5.22896
ltibia 25.9647
lfoot -15.6345 14.0766
ltoes -54.3548
374
root -0.0912266 18.9239 6.00389 25.889 19.2137 1.25108
lowerback 22.8877 -0.419156 7.32061
upperback -4.43169 2.76251 6.30041
thorax -17.6559 0.881775 1.90828
lowerneck -21.0852 -6.74471 -3.82016
upperneck -9.38096 -7.82375 24.3348
head 2.03767 -3.17066 7.64586
rclavicle -1.19271e-014 -2.38542e-014
rhumerus -60.4812 -6.75351 -81.0671
rradius 56.3947
rwrist 37.4136
rhand -12.0145 -42.5555
rfingers 7.12502
rthumb 14.043 -72.0611
lclavicle -1.19271e-014 -2.38542e-014
lhumerus -53.0076 -23.5844 122.406
lradius 49.1552
lwrist -13.9908
lhand -15.4907 -26.9121
lfingers 7.12502
lthumb 10.6914 2.79589
rfemur 0 0 0
rtibia 0
rfoot 0 0
rtoes 0
lfemur -39.5903 -22.8436 -5.57096
ltibia 25.9265
lfoot -15.7894 14.0801
ltoes -54.3698
375
root -0.089255 18.9248 6.02008 25.8919 19.1651 1.2935
lowerback 22.5958 -0.44682 7.44066
upperback -4.58122 2.73752 6.27787
thorax -17.6695 0.856405 1.83104
lowerneck -20.8973 -6.96336 -3.8525
upperneck -9.45558 -8.10286 24.6564
head 2.05457 -3.31713 7.72739
rclavicle 5.32743e-014 3.97569e-014
rhumerus -60.5282 -6.83577 -81.0652
rradius 56.1449
rwrist 37.5147
rhand -11.9116 -42.6145
rfingers 7.12502
rthumb 14.1422 -72.1131
lclavicle 5.32743e-014 3.97569e-014
lhumerus -53.1379 -23.4781 122.356
lradius 49.0517
lwrist -14.0589
lhand -15.2937 -26.8621
lfingers 7.12502
lthumb 10.8815 2.83601
rfemur 0 0 0
rtibia 0
rfoot 0 0
rtoes 0
lfemur -39.4759 -22.6903 -5.72599
ltibia 25.9217
lfoot -15.8191 13.9056
ltoes -54.3948
376
root -0.0870052 18.9247 6.03708 25.8272 19.0474 1.3631
lowerback 22.4005 -0.427383 7.5543
upperback -4.71234 2.77755 6.22354
thorax -17.7105 0.856548 1.69731
lowerneck -20.7486 -7.24532 -3.94075
upperneck -9.52441 -8.45768 24.9061
head 2.08743 -3.49768 7.78499
rclavicle 4.13472e-014 7.4743e-014
rhumerus -60.6391 -6.954 -81.0202
rradius 55.9768
rwrist 37.6279
rhand -11.7365 -42.817
rfingers 7.12502
rthumb 14.3109 -72.3038
lclavicle 4.13472e-014 7.4743e-014
lhumerus -53.2917 -23.4755 122.377
lradius 48.9226
lwrist -14.042
lhand -15.0239 -26.863
lfingers 7.12502
lthumb 11.1417 2.82122
rfemur 0 0 0
rtibia 0
rfoot 0 0
rtoes 0
lfemur -39.3087 -22.5782 -5.94339
ltibia 26.0202
lfoot -15.9419 13.7872
ltoes -54.3629
